<mxfile host="app.diagrams.net" modified="2023-12-03T09:52:13.743Z" agent="Mozilla/5.0 (Windows NT 10.0; Win64; x64) AppleWebKit/537.36 (KHTML, like Gecko) Chrome/119.0.0.0 Safari/537.36" etag="cG4TeJSHBwNiZBE62dH1" version="22.1.5" type="gitlab">
  <diagram name="Page-1" id="03018318-947c-dd8e-b7a3-06fadd420f32">
    <mxGraphModel dx="1193" dy="753" grid="1" gridSize="10" guides="1" tooltips="1" connect="1" arrows="1" fold="1" page="1" pageScale="1" pageWidth="1100" pageHeight="850" background="none" math="0" shadow="0">
      <root>
        <mxCell id="0" />
        <mxCell id="1" parent="0" />
        <mxCell id="Y9C6WoI7XYVa_xKVGL2v-1" value="" style="whiteSpace=wrap;html=1;rounded=0;shadow=0;labelBackgroundColor=none;strokeWidth=1;fillColor=#f5f5f5;fontFamily=Verdana;fontSize=12;align=center;comic=1;fontColor=#333333;strokeColor=#666666;" vertex="1" parent="1">
          <mxGeometry x="30" y="40" width="1040" height="50" as="geometry" />
        </mxCell>
        <mxCell id="Y9C6WoI7XYVa_xKVGL2v-2" value="Home" style="text;html=1;points=[];align=left;verticalAlign=top;spacingTop=-4;fontSize=14;fontFamily=Verdana" vertex="1" parent="1">
          <mxGeometry x="800" y="55" width="60" height="20" as="geometry" />
        </mxCell>
        <mxCell id="Y9C6WoI7XYVa_xKVGL2v-3" value="Login" style="text;html=1;points=[];align=left;verticalAlign=top;spacingTop=-4;fontSize=14;fontFamily=Verdana" vertex="1" parent="1">
          <mxGeometry x="890" y="55" width="60" height="20" as="geometry" />
        </mxCell>
        <mxCell id="Y9C6WoI7XYVa_xKVGL2v-4" value="Register" style="text;html=1;points=[];align=left;verticalAlign=top;spacingTop=-4;fontSize=14;fontFamily=Verdana" vertex="1" parent="1">
          <mxGeometry x="980" y="55" width="60" height="20" as="geometry" />
        </mxCell>
        <mxCell id="Y9C6WoI7XYVa_xKVGL2v-5" value="&lt;font style=&quot;font-size: 18px;&quot;&gt;Ford Car Prediction&lt;/font&gt;" style="text;html=1;points=[];align=left;verticalAlign=top;spacingTop=-4;fontSize=14;fontFamily=Verdana" vertex="1" parent="1">
          <mxGeometry x="50" y="55" width="60" height="20" as="geometry" />
        </mxCell>
        <mxCell id="Y9C6WoI7XYVa_xKVGL2v-6" value="" style="rounded=1;whiteSpace=wrap;html=1;fillColor=#003366;" vertex="1" parent="1">
          <mxGeometry x="230" y="140" width="640" height="560" as="geometry" />
        </mxCell>
        <mxCell id="Y9C6WoI7XYVa_xKVGL2v-7" value="&lt;font color=&quot;#ffffff&quot; style=&quot;font-size: 36px;&quot;&gt;Sign Up&lt;/font&gt;" style="text;html=1;points=[];align=left;verticalAlign=top;spacingTop=-4;fontSize=14;fontFamily=Verdana" vertex="1" parent="1">
          <mxGeometry x="480" y="170" width="190" height="60" as="geometry" />
        </mxCell>
        <mxCell id="Y9C6WoI7XYVa_xKVGL2v-8" style="edgeStyle=orthogonalEdgeStyle;rounded=0;orthogonalLoop=1;jettySize=auto;html=1;exitX=1;exitY=0.5;exitDx=0;exitDy=0;entryX=1;entryY=0.75;entryDx=0;entryDy=0;" edge="1" parent="1">
          <mxGeometry relative="1" as="geometry">
            <mxPoint x="790" y="330" as="sourcePoint" />
            <mxPoint x="790" y="340" as="targetPoint" />
          </mxGeometry>
        </mxCell>
        <mxCell id="Y9C6WoI7XYVa_xKVGL2v-9" value="&lt;font style=&quot;font-size: 24px;&quot;&gt;Login&lt;/font&gt;" style="rounded=1;whiteSpace=wrap;html=1;fillColor=#dae8fc;strokeColor=#6c8ebf;" vertex="1" parent="1">
          <mxGeometry x="305" y="610" width="490" height="40" as="geometry" />
        </mxCell>
        <mxCell id="Y9C6WoI7XYVa_xKVGL2v-10" value="&lt;font color=&quot;#ffffff&quot; style=&quot;font-size: 18px;&quot;&gt;&amp;nbsp; Enter Username&lt;/font&gt;" style="rounded=1;whiteSpace=wrap;html=1;align=left;fillColor=#000000;" vertex="1" parent="1">
          <mxGeometry x="305" y="340" width="490" height="40" as="geometry" />
        </mxCell>
        <mxCell id="Y9C6WoI7XYVa_xKVGL2v-11" value="&lt;font color=&quot;#ffffff&quot; style=&quot;font-size: 24px;&quot;&gt;Username&lt;/font&gt;" style="text;html=1;points=[];align=left;verticalAlign=top;spacingTop=-4;fontSize=14;fontFamily=Verdana" vertex="1" parent="1">
          <mxGeometry x="305" y="290" width="155" height="20" as="geometry" />
        </mxCell>
        <mxCell id="Y9C6WoI7XYVa_xKVGL2v-12" value="&lt;font color=&quot;#ffffff&quot; style=&quot;font-size: 24px;&quot;&gt;Password&lt;/font&gt;" style="text;html=1;points=[];align=left;verticalAlign=top;spacingTop=-4;fontSize=14;fontFamily=Verdana" vertex="1" parent="1">
          <mxGeometry x="305" y="400" width="155" height="30" as="geometry" />
        </mxCell>
        <mxCell id="Y9C6WoI7XYVa_xKVGL2v-13" value="&lt;font color=&quot;#ffffff&quot; style=&quot;font-size: 18px;&quot;&gt;&amp;nbsp; Enter Password&lt;/font&gt;" style="rounded=1;whiteSpace=wrap;html=1;align=left;fillColor=#000000;" vertex="1" parent="1">
          <mxGeometry x="305" y="450" width="490" height="40" as="geometry" />
        </mxCell>
        <mxCell id="Y9C6WoI7XYVa_xKVGL2v-14" value="Copyright ©2023. ⚉ Ford Car Prediction ⚉ All rights reserved." style="whiteSpace=wrap;html=1;rounded=0;shadow=0;labelBackgroundColor=none;strokeWidth=1;fillColor=#f5f5f5;fontFamily=Verdana;fontSize=12;align=center;comic=1;fontColor=#333333;strokeColor=#666666;" vertex="1" parent="1">
          <mxGeometry y="740" width="1100" height="110" as="geometry" />
        </mxCell>
        <mxCell id="Y9C6WoI7XYVa_xKVGL2v-15" value="&lt;font color=&quot;#ffffff&quot; style=&quot;font-size: 18px;&quot;&gt;&amp;nbsp; Enter Password&lt;/font&gt;" style="rounded=1;whiteSpace=wrap;html=1;align=left;fillColor=#000000;" vertex="1" parent="1">
          <mxGeometry x="305" y="550" width="490" height="40" as="geometry" />
        </mxCell>
        <mxCell id="Y9C6WoI7XYVa_xKVGL2v-16" value="&lt;font color=&quot;#ffffff&quot; style=&quot;font-size: 24px;&quot;&gt;Confirm Password&lt;/font&gt;" style="text;html=1;points=[];align=left;verticalAlign=top;spacingTop=-4;fontSize=14;fontFamily=Verdana" vertex="1" parent="1">
          <mxGeometry x="305" y="510" width="155" height="30" as="geometry" />
        </mxCell>
      </root>
    </mxGraphModel>
  </diagram>
</mxfile>
